<?xml version="1.0" ?><svg xmlns="http://www.w3.org/2000/svg" viewBox="0 0 128 128"><path d="m123.97 25.42c-.32-11.8-10.13-15.93-15.43-15.82s-17.58 3.81-29.59 14.96-17.1 25.97-17.1 25.97-.76 0-1.41-.32-4.93-8.46-10.23-16.47-15.69-19.26-23.05-23.27c-7.36-4-18.29-2.6-20.99 2.71-2.71 5.3-2.16 14.07-2.06 24.13.11 10.06.11 14.39 2.81 25.75 2.71 11.36 14.93 14.07 14.93 14.07s-5.63 4.44-8.55 8.12-3.14 12.55 3.25 21.21c6.38 8.66 18.68 16.8 30.04 11.93s16.99-15.91 16.99-15.91c11.25 16.88 22.18 17.86 32.9 12.12 10.71-5.74 15.15-16.12 14.5-24.67s-9.04-14.09-9.04-14.09c4-1.08 14.67-4.09 17.27-12.31s5.09-26.3 4.76-38.09zm-5.58 1.82c-.65 8.33-1.62 25.75-6.6 33.65s-12.01 11.58-16.67 12.12c-4.65.54-7.47-.32-8.44.54s-.76 2.38 3.9 3.35c4.65.97 15.15 2.81 14.72 10.6s-6.71 18.94-19.05 21.75-21.75-14.18-22.18-16.67.11-5.41-2.16-5.41-1.73 5.52-6.17 11.8-11.25 11.9-20.78 12.77c-9.52.87-19.37-12.34-19.8-16.88s1.73-10.5 6.71-13.53 14.07-6.71 16.12-7.79c2.06-1.08 1.08-4.55-1.41-3.46-2.49 1.08-16.23 3.57-22.29-5.3-4.32-6.32-6.82-14.5-7.03-26.51-.22-12.01-.22-22.72 3.03-24.89 3.25-2.16 13.2-1.62 20.78 4.76 7.57 6.38 16.77 18.4 21.53 28.78 4.76 10.39 6.17 12.99 8.66 13.09 2.49.11 2.71-2.81 4.98-8.33s9.41-17.96 20.02-26.51c10.6-8.55 17.64-12.12 24.02-11.36s8.77 5.09 8.12 13.42zm-101.07-11.15c-4.98-.43-6.49 1.3-7.03 3.68s-.76 13.2.11 14.28 3.03 1.3 3.68-.11-.32-8.77.22-12.12 3.9-2.38 4.33-3.25.12-2.37-1.3-2.49zm8.55 67.2c-1.84.22-6.17 5.09-5.84 11.25s6.28 7.14 6.82 5.52-2.27-2.38-2.49-6.28 3.03-6.38 3.68-7.9c.65-1.51-.76-2.76-2.16-2.6zm76.18-60.71c.65-1.08.65-3.14-.87-3.25s-3.14.97-9.85 6.28c-6.71 5.3-12.29 11.65-13.09 13.53-.65 1.51 1.95 3.25 2.92 2.38s3.35-4.54 9.2-10.6c5.84-6.06 11.04-7.25 11.69-8.33zm-22.32 75.73c-1.14-.49-3.12 1.99-2.6 2.68.81 1.06 6.66 5.84 7.14 6.01.49.16 2.44-.73 2.44-1.54s-5.84-6.66-6.98-7.14zm2.19-1.54c.81 1.05 8.93 8.12 9.41 8.28.49.16 2.43-.73 2.43-1.54s-8.12-8.93-9.25-9.41c-1.14-.49-3.12 1.99-2.6 2.68zm13.15 3.24c.49.16 2.43-.73 2.43-1.54s-5.68-6.66-6.82-7.14c-1.14-.49-3.12 1.99-2.6 2.68.81 1.06 6.49 5.84 6.98 6.01zm3.73-4.62c.49.16 1.87-1.22 1.87-2.03s-3.81-4.79-4.95-5.28-3.12 1.99-2.6 2.68c.81 1.06 5.19 4.46 5.68 4.63zm.9-6.82c.49.08.97-.81 1.05-1.7s-1.79-3-2.68-3-2.34 1.65-1.79 2.27c.73.81 2.92 2.35 3.41 2.43zm-8.36-27.03c-.81-.24-3.35 1.73-2.92 2.44.49.81 6.25 6.01 6.9 6.41.65.41 2.11-.73 2.27-1.46s-5.44-7.14-6.25-7.39zm3.73-2.51c-.89.08-2.6 1.38-2.19 1.79 1.06 1.05 6.66 7.63 6.98 7.71s2.03-.49 2.27-1.46-6.17-8.12-7.06-8.03zm5.03-3.25c-.81 0-3.6.94-2.92 1.79.97 1.22 7.87 7.22 8.36 7.14s1.7-.73 1.38-1.46-6.01-7.47-6.82-7.47zm5.03-3.9c-.49-.08-2.87 1.48-2.52 2.03.57.89 5.76 6.41 6.57 6.66.81.24 1.62-1.14 1.7-2.03s-5.28-6.57-5.76-6.66zm3.33-5.43c-.97-.08-2.84 1.43-2.27 2.19.49.65 5.28 4.95 5.6 5.03s1.3-.81 1.38-2.11-3.73-5.03-4.71-5.11zm1.22-7.06c-.73-.16-2.25 1.86-1.95 2.35.65 1.05 4.3 3.98 4.79 3.98s1.54-.81 1.62-1.62-3.73-4.55-4.46-4.71zm1.54-5.85c-.97-.16-1.82 1.95-1.46 2.68.41.81 2.68 2.35 3.33 2.35s1.14-.81 1.22-2.11-2.11-2.76-3.08-2.92zm.41-6.17c-1.22-.08-2.1 2.37-1.46 3.33.32.49 1.54 1.46 2.35 1.79.81.32 1.95-.08 2.19-1.06.24-.97-1.87-3.98-3.08-4.06zm2.11-2.92c1.14-1.79-1.21-3.45-2.43-1.87-1.38 1.79 1.3 3.65 2.43 1.87z" fill="#1d1d1b"/></svg>